<svg xmlns="http://www.w3.org/2000/svg" viewBox="0 0 104 104">
  <!-- Engram 아이콘 원본(헥스 모노그램). icon.ico/tray.png는 이걸 래스터한 것.
       48px 미만 크기에서는 점선 육각을 실선(굵기 5)·E 굵기 6.5·팔끝 노드만 남기는 축약형을 쓴다. -->
  <rect width="104" height="104" rx="23" fill="#0f1626"/>
  <g transform="translate(-11 0)">
    <path d="M63 8 L101 30 L101 74 L63 96 L25 74 L25 30 Z" fill="none" stroke="#8fd8ff" stroke-width="1.8" stroke-linecap="round" stroke-dasharray="0.1 5" opacity=".8"/>
    <path d="M47 30 L47 74 M47 30 L82 30 M47 52 L74 52 M47 74 L82 74" fill="none" stroke="#8fd8ff" stroke-width="1.8" stroke-linecap="round"/>
    <path d="M82 30 L101 30 M82 74 L101 74 M47 30 L25 30 M47 74 L25 74 M74 52 L101 74 M74 52 L101 30" fill="none" stroke="#8fd8ff" stroke-width=".8" stroke-dasharray="2 3" opacity=".4"/>
    <g fill="#8fd8ff"><circle cx="82" cy="30" r="3"/><circle cx="82" cy="74" r="3"/><circle cx="74" cy="52" r="3"/><circle cx="47" cy="30" r="3"/><circle cx="47" cy="74" r="3"/></g>
    <g fill="#8fd8ff" opacity=".55"><circle cx="63" cy="8" r="2.3"/><circle cx="101" cy="30" r="2.3"/><circle cx="101" cy="74" r="2.3"/><circle cx="63" cy="96" r="2.3"/><circle cx="25" cy="74" r="2.3"/><circle cx="25" cy="30" r="2.3"/></g>
    <circle cx="47" cy="52" r="4" fill="#e2f6ff"/>
  </g>
</svg>
